<?xml version="1.0" encoding="iso-8859-1"?>
<!-- Generator: Adobe Illustrator 25.2.1, SVG Export Plug-In . SVG Version: 6.00 Build 0)  -->
<svg version="1.1" id="Layer_1" xmlns="http://www.w3.org/2000/svg" xmlns:xlink="http://www.w3.org/1999/xlink" x="0px" y="0px"
	 width="1080.575px" height="311.795px" viewBox="0 0 1080.575 311.795" enable-background="new 0 0 1080.575 311.795"
	 xml:space="preserve">
<g>
	<g>
		<g>
			<path fill="#FFFFFF" d="M713.931,103.646h19.907c15.185,0,25.509,9.584,25.509,23.619c0,14.037-10.323,23.619-25.509,23.619
				h-19.907V103.646z M733.434,145.012c11.676,0,19.165-7.152,19.165-17.747s-7.49-17.747-19.165-17.747h-12.754v35.495H733.434z"/>
			<path fill="#FFFFFF" d="M817.457,145.012v5.871h-34.281v-47.238h33.337v5.871h-26.589v14.509h23.686v5.735h-23.686v15.251
				H817.457z"/>
			<path fill="#FFFFFF" d="M882.245,103.646l-20.716,47.238h-6.681l-20.785-47.238h7.287l17.006,38.802l17.141-38.802H882.245z"/>
			<path fill="#FFFFFF" d="M897.434,127.265c0-13.968,10.662-24.158,25.037-24.158c7.287,0,13.631,2.497,17.95,7.355l-4.386,4.251
				c-3.643-3.847-8.096-5.6-13.294-5.6c-10.662,0-18.556,7.692-18.556,18.152s7.894,18.152,18.556,18.152
				c5.197,0,9.651-1.82,13.294-5.667l4.386,4.251c-4.319,4.858-10.662,7.422-18.017,7.422
				C908.097,151.423,897.434,141.235,897.434,127.265z"/>
			<path fill="#FFFFFF" d="M958.715,127.265c0-13.833,10.662-24.158,25.171-24.158c14.374,0,25.037,10.258,25.037,24.158
				c0,13.9-10.662,24.158-25.037,24.158C969.377,151.423,958.715,141.098,958.715,127.265z M1002.175,127.265
				c0-10.46-7.829-18.152-18.289-18.152c-10.595,0-18.422,7.692-18.422,18.152s7.827,18.152,18.422,18.152
				C994.347,145.417,1002.175,137.725,1002.175,127.265z"/>
			<path fill="#FFFFFF" d="M1073.375,103.646v47.238h-5.532l-28.344-35.225v35.225h-6.748v-47.238h5.534l28.342,35.225v-35.225
				H1073.375z"/>
		</g>
	</g>
	<path fill="#FFFFFF" d="M755.577,202.081c1.529,1.982,2.296,4.367,2.296,7.156c0,4.14-1.713,7.347-5.132,9.618
		c-3.419,2.273-8.37,3.41-14.85,3.41h-26.597v-47.253h25.247c6.301,0,11.059,1.127,14.278,3.377c3.217,2.25,4.825,5.242,4.825,8.977
		c0,2.206-0.551,4.186-1.653,5.941c-1.104,1.755-2.735,3.173-4.895,4.253C751.886,198.594,754.047,200.102,755.577,202.081z
		 M726.955,186.15v7.021h7.426c3.464,0,5.197-1.169,5.197-3.51s-1.734-3.512-5.197-3.512H726.955z M741.805,207.415
		c0-2.475-1.755-3.714-5.265-3.714h-9.585v7.426h9.585C740.051,211.127,741.805,209.89,741.805,207.415z"/>
	<path fill="#FFFFFF" d="M786.695,220.173c-4.049-2.115-7.222-5.051-9.518-8.809c-2.294-3.758-3.442-8-3.442-12.725
		s1.148-8.965,3.442-12.723c2.296-3.758,5.469-6.694,9.518-8.809c4.051-2.115,8.618-3.173,13.704-3.173
		c5.086,0,9.653,1.058,13.702,3.173c4.051,2.115,7.224,5.051,9.518,8.809c2.296,3.758,3.444,7.998,3.444,12.723
		s-1.148,8.967-3.444,12.725c-2.294,3.758-5.467,6.694-9.518,8.809c-4.049,2.113-8.617,3.173-13.702,3.173
		C795.313,223.345,790.746,222.286,786.695,220.173z M805.766,209c1.597-0.967,2.868-2.339,3.814-4.117
		c0.944-1.778,1.418-3.858,1.418-6.245c0-2.385-0.474-4.465-1.418-6.243c-0.946-1.778-2.217-3.15-3.814-4.119
		c-1.599-0.967-3.386-1.451-5.367-1.451s-3.77,0.484-5.367,1.451c-1.597,0.969-2.868,2.34-3.814,4.119
		c-0.944,1.778-1.418,3.858-1.418,6.243c0,2.387,0.474,4.467,1.418,6.245c0.946,1.778,2.217,3.15,3.814,4.117
		c1.597,0.969,3.387,1.452,5.367,1.452S804.167,209.969,805.766,209z"/>
	<path fill="#FFFFFF" d="M876.272,197.355h13.839v19.982c-2.791,1.936-6.031,3.421-9.72,4.456
		c-3.691,1.034-7.314,1.553-10.868,1.553c-5.041,0-9.564-1.046-13.569-3.14c-4.005-2.092-7.145-5.016-9.416-8.774
		c-2.273-3.758-3.41-8.021-3.41-12.793c0-4.77,1.137-9.033,3.41-12.791c2.271-3.758,5.444-6.682,9.518-8.776
		c4.072-2.092,8.674-3.138,13.804-3.138c4.635,0,8.786,0.776,12.454,2.329c3.668,1.553,6.717,3.814,9.146,6.783l-10.192,8.979
		c-2.97-3.465-6.503-5.197-10.599-5.197c-3.51,0-6.301,1.058-8.37,3.173c-2.071,2.115-3.105,4.995-3.105,8.64
		c0,3.556,1.023,6.413,3.073,8.574c2.046,2.159,4.781,3.24,8.2,3.24c2.027,0,3.961-0.383,5.806-1.148V197.355z"/>
	<path fill="#FFFFFF" d="M920.148,220.173c-4.049-2.115-7.222-5.051-9.518-8.809c-2.294-3.758-3.442-8-3.442-12.725
		s1.148-8.965,3.442-12.723c2.296-3.758,5.469-6.694,9.518-8.809c4.051-2.115,8.618-3.173,13.704-3.173
		c5.086,0,9.653,1.058,13.702,3.173c4.051,2.115,7.224,5.051,9.518,8.809c2.296,3.758,3.444,7.998,3.444,12.723
		s-1.148,8.967-3.444,12.725c-2.294,3.758-5.467,6.694-9.518,8.809c-4.049,2.113-8.617,3.173-13.702,3.173
		C928.766,223.345,924.199,222.286,920.148,220.173z M939.219,209c1.597-0.967,2.868-2.339,3.814-4.117
		c0.944-1.778,1.418-3.858,1.418-6.245c0-2.385-0.474-4.465-1.418-6.243c-0.946-1.778-2.217-3.15-3.814-4.119
		c-1.599-0.967-3.386-1.451-5.367-1.451s-3.77,0.484-5.367,1.451c-1.597,0.969-2.868,2.34-3.814,4.119
		c-0.944,1.778-1.418,3.858-1.418,6.243c0,2.387,0.474,4.467,1.418,6.245c0.946,1.778,2.217,3.15,3.814,4.117
		c1.597,0.969,3.386,1.452,5.367,1.452S937.62,209.969,939.219,209z"/>
	<path fill="#FFFFFF" d="M987.057,187.365h-13.839v-12.354h43.607v12.354h-13.837v34.9h-15.931V187.365z"/>
	<path fill="#FFFFFF" d="M1060.932,214.03h-17.957l-3.173,8.235h-16.201l20.656-47.253h15.661l20.656,47.253h-16.47L1060.932,214.03
		z M1056.544,202.554l-4.59-11.882l-4.59,11.882H1056.544z"/>
	<polygon fill="#1C63AD" points="632.156,103.129 594.72,103.129 594.72,222.4 594.72,222.4 632.156,222.4 669.592,222.4 
		669.592,222.4 669.592,103.129 	"/>
	<polygon fill="#1C63AD" points="431.524,103.129 468.96,167.97 468.96,167.97 506.395,222.4 543.831,167.97 543.831,167.97 
		581.267,103.129 506.395,103.129 	"/>
	<polygon fill="#1C63AD" points="164.169,103.107 126.726,167.959 164.169,222.4 239.053,222.4 201.611,167.959 239.053,103.107 	
		"/>
	<polygon fill="#1C63AD" points="243.779,159.097 262.108,170.77 262.108,170.77 280.436,182.443 280.436,182.443 335.422,217.464 
		372.079,194.117 372.079,194.117 427.064,159.097 335.422,0 	"/>
	<polygon fill="#1C63AD" points="395.049,198.256 335.458,236.21 308.589,219.017 308.635,219.085 276.084,198.256 276.168,198.379 
		244.205,177.927 335.422,311.795 427.064,177.927 394.975,198.364 	"/>
	<polygon opacity="0.75" fill="#214290" points="582.31,241.519 582.31,240.59 581.774,241.519 	"/>
	<rect x="335.209" y="270.712" fill="none" width="0.001" height="0"/>
	<polygon fill="#7DCFE1" points="632.156,103.129 594.72,103.129 594.72,222.4 632.156,222.4 669.592,222.4 669.592,103.129 	"/>
	<polygon fill="#0075A2" points="581.774,241.519 582.31,241.519 582.31,240.59 	"/>
	<polygon fill="#7DCFE1" points="468.96,167.97 506.396,103.129 431.524,103.129 	"/>
	<polygon fill="#1D6EAD" points="543.831,167.97 581.267,103.129 506.396,103.129 	"/>
	<polygon fill="#07AED1" points="506.396,103.129 468.96,167.97 543.831,167.97 	"/>
	<polygon fill="#1D6EAD" points="506.395,222.4 543.831,167.97 468.96,167.97 	"/>
	<polygon fill="#07AED1" points="201.611,167.959 239.053,103.107 164.168,103.107 	"/>
	<polygon fill="#7DCFE1" points="164.168,103.107 126.726,167.959 201.611,167.959 	"/>
	<polygon fill="#07AED1" points="164.168,222.4 201.611,167.959 126.726,167.959 	"/>
	<polygon fill="#1D6EAD" points="201.611,167.959 164.168,222.4 239.053,222.4 	"/>
	<polygon fill="#7DCFE1" points="243.779,159.097 335.422,217.464 335.422,0 	"/>
	<polygon fill="#1D6EAD" points="427.064,159.097 335.422,217.464 335.422,0 	"/>
	<polygon fill="#E32227" points="262.108,170.77 335.422,217.464 335.422,43.493 	"/>
	<polygon fill="#7F141C" points="408.736,170.77 335.422,217.464 335.422,43.493 	"/>
	<polygon fill="#FBCD0B" points="280.436,182.443 335.422,217.464 335.422,86.986 	"/>
	<polygon fill="#F68D1E" points="390.407,182.443 335.422,217.464 335.422,86.986 	"/>
	<polygon fill="#FBCD0B" points="298.765,194.117 335.422,217.464 335.422,130.478 	"/>
	<polygon fill="#F68D1E" points="372.079,194.117 335.422,217.464 335.422,130.478 	"/>
	<path fill="#F8EE5F" d="M335.422,217.464"/>
	<polygon fill="#1D6EAD" points="427.064,177.927 335.422,311.795 335.422,236.294 	"/>
	<polygon fill="#7DCFE1" points="244.205,177.927 335.422,311.795 335.422,236.294 	"/>
	<polygon fill="#7F141C" points="395.05,198.256 335.428,285.348 335.428,236.229 	"/>
	<polygon fill="#E32227" points="276.084,198.256 335.428,285.348 335.428,236.229 	"/>
	<polygon fill="#F68D1E" points="362.456,219.017 335.46,258.452 335.46,236.211 	"/>
	<polygon fill="#FBCD0B" points="308.589,219.017 335.46,258.452 335.46,236.211 	"/>
	<polygon opacity="0.75" fill="#FFFFFF" points="335.422,217.464 347.948,195.717 322.895,195.717 	"/>
	<polygon opacity="0.75" fill="#FFFFFF" points="335.422,130.478 347.948,108.732 322.895,108.732 	"/>
	<polygon opacity="0.75" fill="#FFFFFF" points="347.948,152.225 360.474,130.478 335.422,130.478 	"/>
	<polygon opacity="0.75" fill="#FFFFFF" points="373.001,152.225 385.527,130.478 360.474,130.478 	"/>
	<polygon opacity="0.75" fill="#FFFFFF" points="360.474,173.971 373.001,152.225 347.948,152.225 	"/>
	<polygon opacity="0.75" fill="#FFFFFF" points="347.948,195.717 360.474,173.971 335.422,173.971 	"/>
	<polygon opacity="0.75" fill="#FFFFFF" points="322.895,195.717 335.422,173.971 310.369,173.971 	"/>
	<polygon opacity="0.75" fill="#FFFFFF" points="297.843,152.225 285.316,130.478 310.369,130.478 	"/>
	<polygon opacity="0.75" fill="#FFFFFF" points="310.369,173.971 297.843,152.225 322.895,152.225 	"/>
	<polygon opacity="0.75" fill="#FFFFFF" points="322.895,152.225 310.369,130.478 335.422,130.478 	"/>
	<polygon opacity="0.75" fill="#FFFFFF" points="347.948,108.732 360.474,86.986 335.422,86.986 	"/>
	<polygon opacity="0.75" fill="#FFFFFF" points="322.895,108.732 310.369,86.986 335.422,86.986 	"/>
	<polygon fill="#7DCFE1" points="0,103.107 0,222.4 37.442,162.753 	"/>
	<polygon fill="#07AED1" points="37.442,103.107 0,103.107 0,103.107 37.442,162.753 37.442,162.753 74.884,103.107 	"/>
	<polygon fill="#07AED1" points="37.442,162.754 37.442,162.753 0,222.4 37.442,222.4 74.884,222.4 	"/>
	<polygon fill="#1D6EAD" points="74.884,103.107 37.442,162.753 37.442,162.754 74.884,222.4 112.326,167.958 	"/>
	<polygon fill="#1C63AD" points="37.442,162.754 37.442,162.753 37.442,162.753 	"/>
	<polygon fill="#07AED1" points="632.156,162.764 594.72,222.4 669.592,222.4 667.7,219.386 	"/>
	<polygon fill="#07AED1" points="669.592,103.129 594.72,103.129 632.156,162.764 667.7,106.143 	"/>
	<polygon fill="#1D6EAD" points="667.7,106.143 632.156,162.764 667.7,219.386 669.592,222.4 669.592,103.129 	"/>
</g>
<g>
</g>
<g>
</g>
<g>
</g>
<g>
</g>
<g>
</g>
<g>
</g>
<g>
</g>
<g>
</g>
<g>
</g>
<g>
</g>
<g>
</g>
<g>
</g>
<g>
</g>
<g>
</g>
<g>
</g>
</svg>
