<?xml version="1.0" encoding="iso-8859-1"?>
<!-- Generator: Adobe Illustrator 25.2.1, SVG Export Plug-In . SVG Version: 6.00 Build 0)  -->
<svg version="1.1" id="Layer_1" xmlns="http://www.w3.org/2000/svg" xmlns:xlink="http://www.w3.org/1999/xlink" x="0px" y="0px"
	 width="594.609px" height="311.795px" viewBox="0 0 594.609 311.795" enable-background="new 0 0 594.609 311.795"
	 xml:space="preserve">
<g>
	<g>
		<polygon fill="#1C63AD" points="0,159.097 18.329,170.77 18.329,170.77 36.657,182.443 36.657,182.443 91.643,217.464 
			128.3,194.117 128.3,194.117 183.285,159.097 91.643,0 		"/>
		<polygon fill="#1C63AD" points="151.27,198.256 91.679,236.21 64.81,219.017 64.856,219.085 32.305,198.256 32.389,198.379 
			0.426,177.927 91.643,311.795 183.285,177.927 151.197,198.364 		"/>
		<rect x="91.43" y="270.712" fill="none" width="0.001" height="0"/>
		<polygon fill="#7DCFE1" points="0,159.097 91.643,217.464 91.643,0 		"/>
		<polygon fill="#1D6EAD" points="183.285,159.097 91.643,217.464 91.643,0 		"/>
		<polygon fill="#E32227" points="18.329,170.77 91.643,217.464 91.643,43.493 		"/>
		<polygon fill="#7F141C" points="164.957,170.77 91.643,217.464 91.643,43.493 		"/>
		<polygon fill="#FBCD0B" points="36.657,182.443 91.643,217.464 91.643,86.986 		"/>
		<polygon fill="#F68D1E" points="146.628,182.443 91.643,217.464 91.643,86.986 		"/>
		<polygon fill="#FBCD0B" points="54.986,194.117 91.643,217.464 91.643,130.478 		"/>
		<polygon fill="#F68D1E" points="128.3,194.117 91.643,217.464 91.643,130.478 		"/>
		<path fill="#F8EE5F" d="M91.643,217.464"/>
		<polygon fill="#1D6EAD" points="183.285,177.927 91.643,311.795 91.643,236.294 		"/>
		<polygon fill="#7DCFE1" points="0.426,177.927 91.643,311.795 91.643,236.294 		"/>
		<polygon fill="#7F141C" points="151.271,198.256 91.649,285.348 91.649,236.229 		"/>
		<polygon fill="#E32227" points="32.305,198.256 91.649,285.348 91.649,236.229 		"/>
		<polygon fill="#F68D1E" points="118.677,219.017 91.681,258.452 91.681,236.211 		"/>
		<polygon fill="#FBCD0B" points="64.81,219.017 91.681,258.452 91.681,236.211 		"/>
		<polygon opacity="0.75" fill="#FFFFFF" points="91.643,217.464 104.169,195.717 79.116,195.717 		"/>
		<polygon opacity="0.75" fill="#FFFFFF" points="91.643,130.478 104.169,108.732 79.116,108.732 		"/>
		<polygon opacity="0.75" fill="#FFFFFF" points="104.169,152.225 116.695,130.478 91.643,130.478 		"/>
		<polygon opacity="0.75" fill="#FFFFFF" points="129.222,152.225 141.748,130.478 116.695,130.478 		"/>
		<polygon opacity="0.75" fill="#FFFFFF" points="116.695,173.971 129.222,152.225 104.169,152.225 		"/>
		<polygon opacity="0.75" fill="#FFFFFF" points="104.169,195.717 116.695,173.971 91.643,173.971 		"/>
		<polygon opacity="0.75" fill="#FFFFFF" points="79.116,195.717 91.643,173.971 66.59,173.971 		"/>
		<polygon opacity="0.75" fill="#FFFFFF" points="54.064,152.225 41.537,130.478 66.59,130.478 		"/>
		<polygon opacity="0.75" fill="#FFFFFF" points="66.59,173.971 54.064,152.225 79.116,152.225 		"/>
		<polygon opacity="0.75" fill="#FFFFFF" points="79.116,152.225 66.59,130.478 91.643,130.478 		"/>
		<polygon opacity="0.75" fill="#FFFFFF" points="104.169,108.732 116.695,86.986 91.643,86.986 		"/>
		<polygon opacity="0.75" fill="#FFFFFF" points="79.116,108.732 66.59,86.986 91.643,86.986 		"/>
	</g>
	<g>
		<g>
			<g>
				<path fill="#FFFFFF" d="M227.966,103.646h19.907c15.185,0,25.509,9.584,25.509,23.619c0,14.037-10.323,23.619-25.509,23.619
					h-19.907V103.646z M247.468,145.012c11.676,0,19.165-7.152,19.165-17.747s-7.49-17.747-19.165-17.747h-12.754v35.495H247.468z"
					/>
				<path fill="#FFFFFF" d="M331.491,145.012v5.871H297.21v-47.238h33.337v5.871h-26.589v14.509h23.686v5.735h-23.686v15.251
					H331.491z"/>
				<path fill="#FFFFFF" d="M396.28,103.646l-20.716,47.238h-6.681l-20.785-47.238h7.287l17.006,38.802l17.141-38.802H396.28z"/>
				<path fill="#FFFFFF" d="M411.469,127.265c0-13.968,10.662-24.158,25.037-24.158c7.287,0,13.631,2.497,17.95,7.355l-4.386,4.251
					c-3.643-3.847-8.096-5.6-13.294-5.6c-10.662,0-18.556,7.692-18.556,18.152s7.894,18.152,18.556,18.152
					c5.197,0,9.651-1.82,13.294-5.667l4.386,4.251c-4.319,4.858-10.662,7.422-18.017,7.422
					C422.131,151.423,411.469,141.235,411.469,127.265z"/>
				<path fill="#FFFFFF" d="M472.75,127.265c0-13.833,10.662-24.158,25.171-24.158c14.374,0,25.037,10.258,25.037,24.158
					c0,13.9-10.662,24.158-25.037,24.158C483.412,151.423,472.75,141.098,472.75,127.265z M516.21,127.265
					c0-10.46-7.829-18.152-18.289-18.152c-10.595,0-18.422,7.692-18.422,18.152s7.827,18.152,18.422,18.152
					C508.381,145.417,516.21,137.725,516.21,127.265z"/>
				<path fill="#FFFFFF" d="M587.409,103.646v47.238h-5.532l-28.344-35.225v35.225h-6.748v-47.238h5.534l28.342,35.225v-35.225
					H587.409z"/>
			</g>
		</g>
		<path fill="#FFFFFF" d="M269.611,202.081c1.53,1.982,2.296,4.367,2.296,7.156c0,4.14-1.712,7.347-5.132,9.618
			c-3.419,2.273-8.37,3.41-14.85,3.41h-26.597v-47.253h25.247c6.301,0,11.059,1.127,14.278,3.377
			c3.217,2.25,4.825,5.242,4.825,8.977c0,2.206-0.551,4.186-1.653,5.941c-1.104,1.755-2.735,3.173-4.895,4.253
			C265.921,198.594,268.082,200.102,269.611,202.081z M240.99,186.15v7.021h7.426c3.464,0,5.197-1.169,5.197-3.51
			s-1.734-3.512-5.197-3.512H240.99z M255.84,207.415c0-2.475-1.755-3.714-5.265-3.714h-9.585v7.426h9.585
			C254.085,211.127,255.84,209.89,255.84,207.415z"/>
		<path fill="#FFFFFF" d="M300.73,220.173c-4.049-2.115-7.222-5.051-9.518-8.809c-2.294-3.758-3.442-8-3.442-12.725
			s1.148-8.965,3.442-12.723c2.296-3.758,5.469-6.694,9.518-8.809c4.051-2.115,8.618-3.173,13.704-3.173
			c5.086,0,9.653,1.058,13.702,3.173c4.051,2.115,7.224,5.051,9.518,8.809c2.296,3.758,3.444,7.998,3.444,12.723
			s-1.148,8.967-3.444,12.725c-2.294,3.758-5.467,6.694-9.518,8.809c-4.049,2.113-8.617,3.173-13.702,3.173
			C309.348,223.345,304.781,222.286,300.73,220.173z M319.8,209c1.597-0.967,2.868-2.339,3.814-4.117
			c0.944-1.778,1.418-3.858,1.418-6.245c0-2.385-0.474-4.465-1.418-6.243c-0.946-1.778-2.217-3.15-3.814-4.119
			c-1.599-0.967-3.387-1.451-5.367-1.451c-1.98,0-3.77,0.484-5.367,1.451c-1.597,0.969-2.868,2.34-3.814,4.119
			c-0.944,1.778-1.418,3.858-1.418,6.243c0,2.387,0.474,4.467,1.418,6.245c0.946,1.778,2.217,3.15,3.814,4.117
			c1.597,0.969,3.387,1.452,5.367,1.452C316.414,210.452,318.201,209.969,319.8,209z"/>
		<path fill="#FFFFFF" d="M390.306,197.355h13.839v19.982c-2.791,1.936-6.031,3.421-9.72,4.456
			c-3.691,1.034-7.314,1.553-10.868,1.553c-5.041,0-9.564-1.046-13.569-3.14c-4.005-2.092-7.145-5.016-9.416-8.774
			c-2.273-3.758-3.41-8.021-3.41-12.793c0-4.77,1.137-9.033,3.41-12.791c2.271-3.758,5.444-6.682,9.518-8.776
			c4.072-2.092,8.674-3.138,13.804-3.138c4.635,0,8.786,0.776,12.454,2.329s6.717,3.814,9.146,6.783l-10.192,8.979
			c-2.97-3.465-6.503-5.197-10.599-5.197c-3.51,0-6.301,1.058-8.37,3.173c-2.071,2.115-3.105,4.995-3.105,8.64
			c0,3.556,1.023,6.413,3.073,8.574c2.046,2.159,4.781,3.24,8.2,3.24c2.027,0,3.961-0.383,5.806-1.148V197.355z"/>
		<path fill="#FFFFFF" d="M434.182,220.173c-4.049-2.115-7.222-5.051-9.518-8.809c-2.294-3.758-3.442-8-3.442-12.725
			s1.148-8.965,3.442-12.723c2.296-3.758,5.469-6.694,9.518-8.809c4.051-2.115,8.618-3.173,13.704-3.173s9.653,1.058,13.702,3.173
			c4.051,2.115,7.224,5.051,9.518,8.809c2.296,3.758,3.444,7.998,3.444,12.723s-1.148,8.967-3.444,12.725
			c-2.294,3.758-5.467,6.694-9.518,8.809c-4.049,2.113-8.617,3.173-13.702,3.173S438.234,222.286,434.182,220.173z M453.253,209
			c1.597-0.967,2.868-2.339,3.814-4.117c0.944-1.778,1.418-3.858,1.418-6.245c0-2.385-0.474-4.465-1.418-6.243
			c-0.946-1.778-2.217-3.15-3.814-4.119c-1.599-0.967-3.387-1.451-5.367-1.451c-1.98,0-3.77,0.484-5.367,1.451
			c-1.597,0.969-2.868,2.34-3.814,4.119c-0.944,1.778-1.418,3.858-1.418,6.243c0,2.387,0.474,4.467,1.418,6.245
			c0.946,1.778,2.217,3.15,3.814,4.117c1.597,0.969,3.387,1.452,5.367,1.452C449.867,210.452,451.654,209.969,453.253,209z"/>
		<path fill="#FFFFFF" d="M501.092,187.365h-13.839v-12.354h43.607v12.354h-13.837v34.9h-15.931V187.365z"/>
		<path fill="#FFFFFF" d="M574.966,214.03h-17.957l-3.173,8.235h-16.201l20.656-47.253h15.661l20.656,47.253h-16.47L574.966,214.03z
			 M570.578,202.554l-4.59-11.882l-4.591,11.882H570.578z"/>
	</g>
</g>
<g>
</g>
<g>
</g>
<g>
</g>
<g>
</g>
<g>
</g>
<g>
</g>
<g>
</g>
<g>
</g>
<g>
</g>
<g>
</g>
<g>
</g>
<g>
</g>
<g>
</g>
<g>
</g>
<g>
</g>
</svg>
