<?xml version="1.0" encoding="iso-8859-1"?>
<!-- Generator: Adobe Illustrator 25.2.1, SVG Export Plug-In . SVG Version: 6.00 Build 0)  -->
<svg version="1.1" id="Layer_1" xmlns="http://www.w3.org/2000/svg" xmlns:xlink="http://www.w3.org/1999/xlink" x="0px" y="0px"
	 width="1096.575px" height="311.795px" viewBox="0 0 1096.575 311.795" enable-background="new 0 0 1096.575 311.795"
	 xml:space="preserve">
<g>
	<g>
		<g>
			<path fill="#2F354B" d="M729.932,103.646h19.907c15.185,0,25.509,9.584,25.509,23.619c0,14.037-10.323,23.619-25.509,23.619
				h-19.907V103.646z M749.434,145.012c11.676,0,19.165-7.152,19.165-17.747s-7.49-17.747-19.165-17.747H736.68v35.495H749.434z"/>
			<path fill="#2F354B" d="M833.457,145.012v5.871h-34.281v-47.238h33.337v5.871h-26.589v14.509h23.686v5.735h-23.686v15.251
				H833.457z"/>
			<path fill="#2F354B" d="M898.246,103.646l-20.716,47.238h-6.681l-20.785-47.238h7.287l17.006,38.802l17.141-38.802H898.246z"/>
			<path fill="#2F354B" d="M913.435,127.265c0-13.968,10.662-24.158,25.037-24.158c7.287,0,13.631,2.497,17.95,7.355l-4.386,4.251
				c-3.643-3.847-8.096-5.6-13.294-5.6c-10.662,0-18.556,7.692-18.556,18.152s7.894,18.152,18.556,18.152
				c5.197,0,9.651-1.82,13.294-5.667l4.386,4.251c-4.319,4.858-10.662,7.422-18.017,7.422
				C924.097,151.423,913.435,141.235,913.435,127.265z"/>
			<path fill="#2F354B" d="M974.716,127.265c0-13.833,10.662-24.158,25.171-24.158c14.374,0,25.037,10.258,25.037,24.158
				s-10.662,24.158-25.037,24.158C985.378,151.423,974.716,141.098,974.716,127.265z M1018.176,127.265
				c0-10.46-7.829-18.152-18.289-18.152c-10.595,0-18.422,7.692-18.422,18.152s7.827,18.152,18.422,18.152
				C1010.347,145.417,1018.176,137.725,1018.176,127.265z"/>
			<path fill="#2F354B" d="M1089.375,103.646v47.238h-5.532l-28.344-35.225v35.225h-6.748v-47.238h5.534l28.342,35.225v-35.225
				H1089.375z"/>
		</g>
	</g>
	<path fill="#2F354B" d="M771.577,202.08c1.529,1.982,2.296,4.367,2.296,7.156c0,4.14-1.713,7.347-5.132,9.618
		c-3.419,2.273-8.37,3.41-14.85,3.41h-26.597v-47.253h25.247c6.301,0,11.059,1.127,14.278,3.377c3.217,2.25,4.825,5.242,4.825,8.977
		c0,2.206-0.551,4.186-1.653,5.941c-1.104,1.755-2.735,3.173-4.895,4.253C767.886,198.594,770.048,200.102,771.577,202.08z
		 M742.956,186.15v7.022h7.426c3.464,0,5.197-1.169,5.197-3.51s-1.734-3.512-5.197-3.512H742.956z M757.806,207.415
		c0-2.475-1.755-3.714-5.265-3.714h-9.585v7.426h9.585C756.051,211.127,757.806,209.89,757.806,207.415z"/>
	<path fill="#2F354B" d="M802.695,220.173c-4.049-2.115-7.222-5.051-9.518-8.809c-2.294-3.758-3.442-8-3.442-12.725
		s1.148-8.965,3.442-12.723c2.296-3.758,5.469-6.694,9.518-8.809c4.051-2.115,8.618-3.173,13.704-3.173
		c5.086,0,9.653,1.058,13.702,3.173c4.051,2.115,7.224,5.051,9.518,8.809c2.296,3.758,3.444,7.998,3.444,12.723
		s-1.148,8.967-3.444,12.725c-2.294,3.758-5.467,6.694-9.518,8.809c-4.049,2.113-8.617,3.173-13.702,3.173
		C811.314,223.345,806.746,222.286,802.695,220.173z M821.766,209c1.597-0.967,2.868-2.339,3.814-4.117
		c0.944-1.778,1.418-3.858,1.418-6.245c0-2.385-0.474-4.465-1.418-6.243c-0.946-1.778-2.217-3.15-3.814-4.119
		c-1.599-0.967-3.386-1.451-5.367-1.451s-3.77,0.484-5.367,1.451c-1.597,0.969-2.868,2.34-3.814,4.119
		c-0.944,1.778-1.418,3.858-1.418,6.243c0,2.387,0.474,4.467,1.418,6.245c0.946,1.778,2.217,3.15,3.814,4.117
		c1.597,0.969,3.387,1.452,5.367,1.452S820.167,209.969,821.766,209z"/>
	<path fill="#2F354B" d="M892.272,197.355h13.839v19.982c-2.791,1.936-6.031,3.421-9.72,4.456
		c-3.691,1.034-7.314,1.553-10.868,1.553c-5.041,0-9.564-1.046-13.569-3.14c-4.005-2.092-7.145-5.016-9.416-8.774
		c-2.273-3.758-3.41-8.021-3.41-12.793c0-4.77,1.137-9.033,3.41-12.791c2.271-3.758,5.444-6.682,9.518-8.776
		c4.072-2.092,8.674-3.138,13.804-3.138c4.635,0,8.786,0.776,12.454,2.329c3.668,1.553,6.717,3.814,9.146,6.783l-10.192,8.979
		c-2.97-3.465-6.503-5.197-10.599-5.197c-3.51,0-6.301,1.058-8.37,3.173c-2.071,2.115-3.105,4.995-3.105,8.64
		c0,3.556,1.023,6.413,3.073,8.574c2.046,2.159,4.781,3.24,8.2,3.24c2.027,0,3.961-0.383,5.806-1.148V197.355z"/>
	<path fill="#2F354B" d="M936.148,220.173c-4.049-2.115-7.222-5.051-9.518-8.809c-2.294-3.758-3.442-8-3.442-12.725
		s1.148-8.965,3.442-12.723c2.296-3.758,5.469-6.694,9.518-8.809c4.051-2.115,8.618-3.173,13.704-3.173
		c5.086,0,9.653,1.058,13.702,3.173c4.051,2.115,7.224,5.051,9.518,8.809c2.296,3.758,3.444,7.998,3.444,12.723
		s-1.148,8.967-3.444,12.725c-2.294,3.758-5.467,6.694-9.518,8.809c-4.049,2.113-8.617,3.173-13.702,3.173
		C944.767,223.345,940.199,222.286,936.148,220.173z M955.219,209c1.597-0.967,2.868-2.339,3.814-4.117
		c0.944-1.778,1.418-3.858,1.418-6.245c0-2.385-0.474-4.465-1.418-6.243c-0.946-1.778-2.217-3.15-3.814-4.119
		c-1.599-0.967-3.386-1.451-5.367-1.451s-3.77,0.484-5.367,1.451c-1.597,0.969-2.868,2.34-3.814,4.119
		c-0.944,1.778-1.418,3.858-1.418,6.243c0,2.387,0.474,4.467,1.418,6.245c0.946,1.778,2.217,3.15,3.814,4.117
		c1.597,0.969,3.386,1.452,5.367,1.452S953.62,209.969,955.219,209z"/>
	<path fill="#2F354B" d="M1003.058,187.365h-13.839v-12.354h43.607v12.354h-13.837v34.9h-15.931V187.365z"/>
	<path fill="#2F354B" d="M1076.932,214.03h-17.957l-3.173,8.235h-16.201l20.656-47.253h15.661l20.656,47.253h-16.47L1076.932,214.03
		z M1072.544,202.554l-4.59-11.882l-4.59,11.882H1072.544z"/>
	<g>
		<polygon fill="#2F354B" points="341.328,239.314 252.32,181.031 341.422,311.795 341.422,311.795 341.422,311.795 
			431.128,181.031 		"/>
		<polygon fill="#2F354B" points="588.311,241.52 588.311,240.59 588.311,240.59 587.774,241.52 		"/>
		<polygon fill="#2F354B" points="512.396,103.129 512.396,103.129 437.524,103.129 437.524,103.129 474.96,167.97 512.396,222.4 
			512.396,222.4 512.396,222.4 549.832,167.97 549.832,167.97 549.832,167.97 587.268,103.129 587.268,103.129 		"/>
		<polygon fill="#2F354B" points="245.053,103.107 245.053,103.107 245.053,103.107 170.169,103.107 132.727,167.959 
			132.727,167.959 132.727,167.959 170.169,222.4 245.053,222.4 245.053,222.4 227.939,197.515 207.611,167.959 		"/>
		<polygon fill="#2F354B" points="341.422,0 341.422,0 251.567,155.993 341.325,214.36 431.083,155.993 341.422,0 		"/>
		<polygon fill="#2F354B" points="37.442,103.107 0,103.107 0,103.107 0,103.107 0,222.4 37.442,222.4 74.885,222.4 
			112.327,167.958 74.885,103.107 		"/>
		<polygon fill="#2F354B" points="648.156,103.129 610.72,103.129 610.72,222.4 610.72,222.4 610.721,222.4 648.156,222.4 
			685.592,222.4 685.592,222.4 685.592,103.129 		"/>
	</g>
</g>
<g>
</g>
<g>
</g>
<g>
</g>
<g>
</g>
<g>
</g>
<g>
</g>
<g>
</g>
<g>
</g>
<g>
</g>
<g>
</g>
<g>
</g>
<g>
</g>
<g>
</g>
<g>
</g>
<g>
</g>
</svg>
