<?xml version="1.0" encoding="utf-8"?>
<!-- Generator: Adobe Illustrator 25.2.1, SVG Export Plug-In . SVG Version: 6.00 Build 0)  -->
<svg version="1.1" id="Layer_1" xmlns="http://www.w3.org/2000/svg" xmlns:xlink="http://www.w3.org/1999/xlink" x="0px" y="0px"
	 width="518.8px" height="170.5px" viewBox="0 0 518.8 170.5" style="enable-background:new 0 0 518.8 170.5;" xml:space="preserve"
	>
<style type="text/css">
	.st0{fill:#1C63AD;}
	.st1{fill:none;}
	.st2{fill:#7DCFE1;}
	.st3{fill:#1D6EAD;}
	.st4{fill:#E32227;}
	.st5{fill:#7F141C;}
	.st6{fill:#FBCD0B;}
	.st7{fill:#F68D1E;}
	.st8{fill:#F8EE5F;}
	.st9{opacity:0.75;fill:#FFFFFF;}
	.st10{fill:#FFFFFF;}
</style>
<g>
	<g>
		<polygon class="st0" points="0,87 10,93.4 10,93.4 20,99.8 20,99.8 50.1,118.9 70.1,106.1 70.1,106.1 100.2,87 50.1,0 		"/>
		<polygon class="st0" points="82.7,108.4 50.1,129.1 35.4,119.7 35.5,119.8 17.7,108.4 17.7,108.5 0.2,97.3 50.1,170.5 100.2,97.3 
			82.7,108.5 		"/>
		<rect x="50" y="148" class="st1" width="0" height="0"/>
		<polygon class="st2" points="0,87 50.1,118.9 50.1,0 		"/>
		<polygon class="st3" points="100.2,87 50.1,118.9 50.1,0 		"/>
		<polygon class="st4" points="10,93.4 50.1,118.9 50.1,23.8 		"/>
		<polygon class="st5" points="90.2,93.4 50.1,118.9 50.1,23.8 		"/>
		<polygon class="st6" points="20,99.8 50.1,118.9 50.1,47.6 		"/>
		<polygon class="st7" points="80.2,99.8 50.1,118.9 50.1,47.6 		"/>
		<polygon class="st6" points="30.1,106.1 50.1,118.9 50.1,71.3 		"/>
		<polygon class="st7" points="70.1,106.1 50.1,118.9 50.1,71.3 		"/>
		<path class="st8" d="M50.1,118.9"/>
		<polygon class="st3" points="100.2,97.3 50.1,170.5 50.1,129.2 		"/>
		<polygon class="st2" points="0.2,97.3 50.1,170.5 50.1,129.2 		"/>
		<polygon class="st5" points="82.7,108.4 50.1,156 50.1,129.2 		"/>
		<polygon class="st4" points="17.7,108.4 50.1,156 50.1,129.2 		"/>
		<polygon class="st7" points="64.9,119.7 50.1,141.3 50.1,129.1 		"/>
		<polygon class="st6" points="35.4,119.7 50.1,141.3 50.1,129.1 		"/>
		<polygon class="st9" points="50.1,118.9 57,107 43.3,107 		"/>
		<polygon class="st9" points="50.1,71.3 57,59.4 43.3,59.4 		"/>
		<polygon class="st9" points="57,83.2 63.8,71.3 50.1,71.3 		"/>
		<polygon class="st9" points="70.7,83.2 77.5,71.3 63.8,71.3 		"/>
		<polygon class="st9" points="63.8,95.1 70.7,83.2 57,83.2 		"/>
		<polygon class="st9" points="57,107 63.8,95.1 50.1,95.1 		"/>
		<polygon class="st9" points="43.3,107 50.1,95.1 36.4,95.1 		"/>
		<polygon class="st9" points="29.6,83.2 22.7,71.3 36.4,71.3 		"/>
		<polygon class="st9" points="36.4,95.1 29.6,83.2 43.3,83.2 		"/>
		<polygon class="st9" points="43.3,83.2 36.4,71.3 50.1,71.3 		"/>
		<polygon class="st9" points="57,59.4 63.8,47.6 50.1,47.6 		"/>
		<polygon class="st9" points="43.3,59.4 36.4,47.6 50.1,47.6 		"/>
	</g>
	<g>
		<g>
			<g>
				<path class="st10" d="M152.2,25.7h19.9c15.2,0,25.5,9.6,25.5,23.6c0,14-10.3,23.6-25.5,23.6h-19.9V25.7z M171.7,67
					c11.7,0,19.2-7.2,19.2-17.7s-7.5-17.7-19.2-17.7h-12.8V67H171.7z"/>
				<path class="st10" d="M255.7,67v5.9h-34.3V25.7h33.3v5.9h-26.6V46h23.7v5.7h-23.7V67H255.7z"/>
				<path class="st10" d="M320.5,25.7l-20.7,47.2h-6.7l-20.8-47.2h7.3l17,38.8l17.1-38.8H320.5z"/>
				<path class="st10" d="M335.7,49.3c0-14,10.7-24.2,25-24.2c7.3,0,13.6,2.5,17.9,7.4l-4.4,4.3c-3.6-3.8-8.1-5.6-13.3-5.6
					c-10.7,0-18.6,7.7-18.6,18.2s7.9,18.2,18.6,18.2c5.2,0,9.7-1.8,13.3-5.7l4.4,4.3c-4.3,4.9-10.7,7.4-18,7.4
					C346.4,73.4,335.7,63.2,335.7,49.3z"/>
				<path class="st10" d="M397,49.3c0-13.8,10.7-24.2,25.2-24.2c14.4,0,25,10.3,25,24.2s-10.7,24.2-25,24.2
					C407.6,73.4,397,63.1,397,49.3z M440.4,49.3c0-10.5-7.8-18.2-18.3-18.2c-10.6,0-18.4,7.7-18.4,18.2s7.8,18.2,18.4,18.2
					C432.6,67.4,440.4,59.7,440.4,49.3z"/>
				<path class="st10" d="M511.6,25.7v47.2h-5.5l-28.3-35.2v35.2H471V25.7h5.5l28.3,35.2V25.7H511.6z"/>
			</g>
		</g>
		<path class="st10" d="M193.8,124.1c1.5,2,2.3,4.4,2.3,7.2c0,4.1-1.7,7.3-5.1,9.6c-3.4,2.3-8.4,3.4-14.9,3.4h-26.6V97h25.2
			c6.3,0,11.1,1.1,14.3,3.4c3.2,2.2,4.8,5.2,4.8,9c0,2.2-0.6,4.2-1.7,5.9c-1.1,1.8-2.7,3.2-4.9,4.3
			C190.1,120.6,192.3,122.1,193.8,124.1z M165.2,108.2v7h7.4c3.5,0,5.2-1.2,5.2-3.5c0-2.3-1.7-3.5-5.2-3.5H165.2z M180.1,129.4
			c0-2.5-1.8-3.7-5.3-3.7h-9.6v7.4h9.6C178.3,133.1,180.1,131.9,180.1,129.4z"/>
		<path class="st10" d="M224.9,142.2c-4-2.1-7.2-5.1-9.5-8.8c-2.3-3.8-3.4-8-3.4-12.7s1.1-9,3.4-12.7c2.3-3.8,5.5-6.7,9.5-8.8
			c4.1-2.1,8.6-3.2,13.7-3.2c5.1,0,9.7,1.1,13.7,3.2c4.1,2.1,7.2,5.1,9.5,8.8c2.3,3.8,3.4,8,3.4,12.7s-1.1,9-3.4,12.7
			c-2.3,3.8-5.5,6.7-9.5,8.8c-4,2.1-8.6,3.2-13.7,3.2C233.6,145.4,229,144.3,224.9,142.2z M244,131c1.6-1,2.9-2.3,3.8-4.1
			c0.9-1.8,1.4-3.9,1.4-6.2c0-2.4-0.5-4.5-1.4-6.2c-0.9-1.8-2.2-3.1-3.8-4.1c-1.6-1-3.4-1.5-5.4-1.5c-2,0-3.8,0.5-5.4,1.5
			c-1.6,1-2.9,2.3-3.8,4.1c-0.9,1.8-1.4,3.9-1.4,6.2c0,2.4,0.5,4.5,1.4,6.2c0.9,1.8,2.2,3.1,3.8,4.1c1.6,1,3.4,1.5,5.4,1.5
			C240.6,132.5,242.4,132,244,131z"/>
		<path class="st10" d="M314.5,119.4h13.8v20c-2.8,1.9-6,3.4-9.7,4.5c-3.7,1-7.3,1.6-10.9,1.6c-5,0-9.6-1-13.6-3.1
			c-4-2.1-7.1-5-9.4-8.8c-2.3-3.8-3.4-8-3.4-12.8c0-4.8,1.1-9,3.4-12.8c2.3-3.8,5.4-6.7,9.5-8.8c4.1-2.1,8.7-3.1,13.8-3.1
			c4.6,0,8.8,0.8,12.5,2.3c3.7,1.6,6.7,3.8,9.1,6.8l-10.2,9c-3-3.5-6.5-5.2-10.6-5.2c-3.5,0-6.3,1.1-8.4,3.2c-2.1,2.1-3.1,5-3.1,8.6
			c0,3.6,1,6.4,3.1,8.6c2,2.2,4.8,3.2,8.2,3.2c2,0,4-0.4,5.8-1.1V119.4z"/>
		<path class="st10" d="M358.4,142.2c-4-2.1-7.2-5.1-9.5-8.8c-2.3-3.8-3.4-8-3.4-12.7s1.1-9,3.4-12.7c2.3-3.8,5.5-6.7,9.5-8.8
			c4.1-2.1,8.6-3.2,13.7-3.2s9.7,1.1,13.7,3.2c4.1,2.1,7.2,5.1,9.5,8.8c2.3,3.8,3.4,8,3.4,12.7s-1.1,9-3.4,12.7
			c-2.3,3.8-5.5,6.7-9.5,8.8c-4,2.1-8.6,3.2-13.7,3.2S362.5,144.3,358.4,142.2z M377.5,131c1.6-1,2.9-2.3,3.8-4.1
			c0.9-1.8,1.4-3.9,1.4-6.2c0-2.4-0.5-4.5-1.4-6.2c-0.9-1.8-2.2-3.1-3.8-4.1c-1.6-1-3.4-1.5-5.4-1.5c-2,0-3.8,0.5-5.4,1.5
			c-1.6,1-2.9,2.3-3.8,4.1c-0.9,1.8-1.4,3.9-1.4,6.2c0,2.4,0.5,4.5,1.4,6.2c0.9,1.8,2.2,3.1,3.8,4.1c1.6,1,3.4,1.5,5.4,1.5
			C374.1,132.5,375.9,132,377.5,131z"/>
		<path class="st10" d="M425.3,109.4h-13.8V97h43.6v12.4h-13.8v34.9h-15.9V109.4z"/>
		<path class="st10" d="M499.2,136h-18l-3.2,8.2h-16.2L482.5,97h15.7l20.7,47.3h-16.5L499.2,136z M494.8,124.6l-4.6-11.9l-4.6,11.9
			H494.8z"/>
	</g>
</g>
</svg>
