<?xml version="1.0" encoding="utf-8"?>
<!-- Generator: Adobe Illustrator 25.2.1, SVG Export Plug-In . SVG Version: 6.00 Build 0)  -->
<svg version="1.1" id="Layer_1" xmlns="http://www.w3.org/2000/svg" xmlns:xlink="http://www.w3.org/1999/xlink" x="0px" y="0px"
	 width="517.8px" height="171px" viewBox="0 0 517.8 171" style="enable-background:new 0 0 517.8 171;" xml:space="preserve">
<style type="text/css">
	.st0{fill:#2F354B;}
</style>
<g>
	<g>
		<g>
			<g>
				<path class="st0" d="M151.2,26.2h19.9c15.2,0,25.5,9.6,25.5,23.6c0,14-10.3,23.6-25.5,23.6h-19.9V26.2z M170.7,67.6
					c11.7,0,19.2-7.2,19.2-17.7s-7.5-17.7-19.2-17.7H158v35.5H170.7z"/>
				<path class="st0" d="M254.7,67.6v5.9h-34.3V26.2h33.3v5.9h-26.6v14.5h23.7v5.7h-23.7v15.3H254.7z"/>
				<path class="st0" d="M319.5,26.2l-20.7,47.2h-6.7l-20.8-47.2h7.3l17,38.8l17.1-38.8H319.5z"/>
				<path class="st0" d="M334.7,49.8c0-14,10.7-24.2,25-24.2c7.3,0,13.6,2.5,17.9,7.4l-4.4,4.3c-3.6-3.8-8.1-5.6-13.3-5.6
					c-10.7,0-18.6,7.7-18.6,18.2S349.4,68,360,68c5.2,0,9.7-1.8,13.3-5.7l4.4,4.3c-4.3,4.9-10.7,7.4-18,7.4
					C345.4,74,334.7,63.8,334.7,49.8z"/>
				<path class="st0" d="M396,49.8c0-13.8,10.7-24.2,25.2-24.2c14.4,0,25,10.3,25,24.2S435.5,74,421.2,74
					C406.7,74,396,63.7,396,49.8z M439.5,49.8c0-10.5-7.8-18.2-18.3-18.2c-10.6,0-18.4,7.7-18.4,18.2S410.6,68,421.2,68
					C431.6,68,439.5,60.3,439.5,49.8z"/>
				<path class="st0" d="M510.6,26.2v47.2h-5.5l-28.3-35.2v35.2H470V26.2h5.5l28.3,35.2V26.2H510.6z"/>
			</g>
		</g>
		<path class="st0" d="M192.9,124.6c1.5,2,2.3,4.4,2.3,7.2c0,4.1-1.7,7.3-5.1,9.6c-3.4,2.3-8.4,3.4-14.9,3.4h-26.6V97.6h25.2
			c6.3,0,11.1,1.1,14.3,3.4c3.2,2.2,4.8,5.2,4.8,9c0,2.2-0.6,4.2-1.7,5.9c-1.1,1.8-2.7,3.2-4.9,4.3
			C189.2,121.1,191.3,122.7,192.9,124.6z M164.2,108.7v7h7.4c3.5,0,5.2-1.2,5.2-3.5c0-2.3-1.7-3.5-5.2-3.5H164.2z M179.1,130
			c0-2.5-1.8-3.7-5.3-3.7h-9.6v7.4h9.6C177.3,133.7,179.1,132.4,179.1,130z"/>
		<path class="st0" d="M224,142.7c-4-2.1-7.2-5.1-9.5-8.8c-2.3-3.8-3.4-8-3.4-12.7c0-4.7,1.1-9,3.4-12.7c2.3-3.8,5.5-6.7,9.5-8.8
			c4.1-2.1,8.6-3.2,13.7-3.2s9.7,1.1,13.7,3.2c4.1,2.1,7.2,5.1,9.5,8.8c2.3,3.8,3.4,8,3.4,12.7c0,4.7-1.1,9-3.4,12.7
			c-2.3,3.8-5.5,6.7-9.5,8.8c-4,2.1-8.6,3.2-13.7,3.2S228,144.8,224,142.7z M243,131.6c1.6-1,2.9-2.3,3.8-4.1
			c0.9-1.8,1.4-3.9,1.4-6.2c0-2.4-0.5-4.5-1.4-6.2c-0.9-1.8-2.2-3.1-3.8-4.1c-1.6-1-3.4-1.5-5.4-1.5c-2,0-3.8,0.5-5.4,1.5
			c-1.6,1-2.9,2.3-3.8,4.1c-0.9,1.8-1.4,3.9-1.4,6.2c0,2.4,0.5,4.5,1.4,6.2c0.9,1.8,2.2,3.1,3.8,4.1c1.6,1,3.4,1.5,5.4,1.5
			C239.7,133,241.4,132.5,243,131.6z"/>
		<path class="st0" d="M313.5,119.9h13.8v20c-2.8,1.9-6,3.4-9.7,4.5c-3.7,1-7.3,1.6-10.9,1.6c-5,0-9.6-1-13.6-3.1
			c-4-2.1-7.1-5-9.4-8.8c-2.3-3.8-3.4-8-3.4-12.8c0-4.8,1.1-9,3.4-12.8c2.3-3.8,5.4-6.7,9.5-8.8c4.1-2.1,8.7-3.1,13.8-3.1
			c4.6,0,8.8,0.8,12.5,2.3c3.7,1.6,6.7,3.8,9.1,6.8l-10.2,9c-3-3.5-6.5-5.2-10.6-5.2c-3.5,0-6.3,1.1-8.4,3.2c-2.1,2.1-3.1,5-3.1,8.6
			c0,3.6,1,6.4,3.1,8.6c2,2.2,4.8,3.2,8.2,3.2c2,0,4-0.4,5.8-1.1V119.9z"/>
		<path class="st0" d="M357.4,142.7c-4-2.1-7.2-5.1-9.5-8.8c-2.3-3.8-3.4-8-3.4-12.7c0-4.7,1.1-9,3.4-12.7c2.3-3.8,5.5-6.7,9.5-8.8
			c4.1-2.1,8.6-3.2,13.7-3.2s9.7,1.1,13.7,3.2c4.1,2.1,7.2,5.1,9.5,8.8c2.3,3.8,3.4,8,3.4,12.7c0,4.7-1.1,9-3.4,12.7
			c-2.3,3.8-5.5,6.7-9.5,8.8c-4,2.1-8.6,3.2-13.7,3.2S361.5,144.8,357.4,142.7z M376.5,131.6c1.6-1,2.9-2.3,3.8-4.1
			c0.9-1.8,1.4-3.9,1.4-6.2c0-2.4-0.5-4.5-1.4-6.2c-0.9-1.8-2.2-3.1-3.8-4.1c-1.6-1-3.4-1.5-5.4-1.5s-3.8,0.5-5.4,1.5
			c-1.6,1-2.9,2.3-3.8,4.1c-0.9,1.8-1.4,3.9-1.4,6.2c0,2.4,0.5,4.5,1.4,6.2c0.9,1.8,2.2,3.1,3.8,4.1c1.6,1,3.4,1.5,5.4,1.5
			S374.9,132.5,376.5,131.6z"/>
		<path class="st0" d="M424.3,109.9h-13.8V97.6h43.6v12.4h-13.8v34.9h-15.9V109.9z"/>
		<path class="st0" d="M498.2,136.6h-18l-3.2,8.2h-16.2l20.7-47.3h15.7l20.7,47.3h-16.5L498.2,136.6z M493.8,125.1l-4.6-11.9
			l-4.6,11.9H493.8z"/>
	</g>
	<g>
		<polygon class="st0" points="49.2,131.3 0.4,99.3 49.3,171 49.3,171 49.3,171 98.5,99.3 		"/>
		<polygon class="st0" points="49.3,0 49.3,0 0,85.6 49.2,117.6 98.5,85.6 49.3,0 		"/>
	</g>
</g>
</svg>
