<?xml version="1.0" encoding="iso-8859-1"?>
<!-- Generator: Adobe Illustrator 25.2.1, SVG Export Plug-In . SVG Version: 6.00 Build 0)  -->
<svg version="1.1" id="Layer_1" xmlns="http://www.w3.org/2000/svg" xmlns:xlink="http://www.w3.org/1999/xlink" x="0px" y="0px"
	 width="230.498px" height="414.123px" viewBox="0 0 230.498 414.123" enable-background="new 0 0 230.498 414.123"
	 xml:space="preserve">
<g>
	<g>
		<g>
			<g>
				<path fill="#FFFFFF" d="M1.646,339.409h12.425c9.478,0,15.922,5.982,15.922,14.742c0,8.762-6.444,14.742-15.922,14.742H1.646
					V339.409z M13.819,365.229c7.288,0,11.963-4.464,11.963-11.078s-4.675-11.078-11.963-11.078H5.858v22.155H13.819z"/>
				<path fill="#FFFFFF" d="M66.265,365.229v3.665H44.867v-29.485h20.809v3.665H49.079v9.056h14.785v3.579H49.079v9.519H66.265z"/>
				<path fill="#FFFFFF" d="M106.705,339.409l-12.93,29.485h-4.17l-12.974-29.485h4.549l10.615,24.22l10.699-24.22H106.705z"/>
				<path fill="#FFFFFF" d="M116.185,354.151c0-8.719,6.655-15.079,15.627-15.079c4.549,0,8.508,1.558,11.204,4.591l-2.738,2.654
					c-2.274-2.401-5.054-3.495-8.298-3.495c-6.655,0-11.583,4.801-11.583,11.33s4.927,11.33,11.583,11.33
					c3.244,0,6.024-1.136,8.298-3.537l2.738,2.654c-2.696,3.032-6.655,4.633-11.246,4.633
					C122.841,369.23,116.185,362.871,116.185,354.151z"/>
				<path fill="#FFFFFF" d="M154.436,354.151c0-8.634,6.655-15.079,15.712-15.079c8.972,0,15.627,6.403,15.627,15.079
					s-6.655,15.079-15.627,15.079C161.091,369.23,154.436,362.786,154.436,354.151z M181.563,354.151
					c0-6.529-4.886-11.33-11.415-11.33c-6.613,0-11.498,4.801-11.498,11.33s4.885,11.33,11.498,11.33
					C176.676,365.481,181.563,360.68,181.563,354.151z"/>
				<path fill="#FFFFFF" d="M226.004,339.409v29.485h-3.453l-17.692-21.987v21.987h-4.212v-29.485h3.454l17.691,21.987v-21.987
					H226.004z"/>
			</g>
		</g>
		<path fill="#FFFFFF" d="M27.64,400.85c0.955,1.237,1.433,2.726,1.433,4.467c0,2.584-1.069,4.586-3.203,6.004
			c-2.134,1.419-5.224,2.128-9.269,2.128H0v-29.495h15.758c3.933,0,6.903,0.703,8.912,2.108c2.008,1.404,3.012,3.272,3.012,5.603
			c0,1.377-0.344,2.613-1.032,3.708c-0.689,1.095-1.707,1.98-3.055,2.655C25.337,398.673,26.686,399.615,27.64,400.85z
			 M9.775,390.906v4.383h4.635c2.162,0,3.244-0.73,3.244-2.191c0-1.461-1.082-2.192-3.244-2.192H9.775z M19.045,404.179
			c0-1.545-1.095-2.318-3.286-2.318H9.775v4.635h5.983C17.949,406.496,19.045,405.724,19.045,404.179z"/>
		<path fill="#FFFFFF" d="M47.064,412.143c-2.527-1.32-4.508-3.153-5.941-5.499c-1.432-2.346-2.149-4.993-2.149-7.943
			s0.717-5.596,2.149-7.942c1.433-2.346,3.414-4.178,5.941-5.499c2.529-1.32,5.379-1.98,8.554-1.98c3.174,0,6.025,0.66,8.553,1.98
			c2.529,1.32,4.509,3.153,5.941,5.499c1.433,2.346,2.15,4.992,2.15,7.942s-0.717,5.597-2.15,7.943
			c-1.432,2.346-3.412,4.178-5.941,5.499c-2.527,1.319-5.378,1.98-8.553,1.98C52.443,414.123,49.592,413.462,47.064,412.143z
			 M58.967,405.169c0.997-0.604,1.79-1.46,2.381-2.569c0.589-1.11,0.885-2.408,0.885-3.898c0-1.489-0.296-2.787-0.885-3.897
			c-0.59-1.11-1.384-1.966-2.381-2.571c-0.998-0.604-2.114-0.905-3.35-0.905c-1.236,0-2.353,0.302-3.35,0.905
			c-0.997,0.605-1.79,1.461-2.381,2.571c-0.589,1.11-0.885,2.408-0.885,3.897c0,1.49,0.296,2.788,0.885,3.898
			c0.59,1.11,1.384,1.966,2.381,2.569c0.997,0.605,2.114,0.907,3.35,0.907C56.854,406.075,57.97,405.774,58.967,405.169z"/>
		<path fill="#FFFFFF" d="M102.976,397.9h8.638v12.472c-1.742,1.208-3.765,2.135-6.067,2.781c-2.304,0.646-4.565,0.969-6.784,0.969
			c-3.147,0-5.97-0.653-8.47-1.96c-2.5-1.306-4.46-3.131-5.877-5.477c-1.419-2.346-2.128-5.007-2.128-7.985
			c0-2.977,0.709-5.638,2.128-7.984c1.418-2.346,3.398-4.171,5.941-5.478c2.542-1.306,5.414-1.959,8.616-1.959
			c2.893,0,5.484,0.485,7.773,1.454c2.289,0.969,4.193,2.381,5.709,4.234l-6.362,5.604c-1.854-2.163-4.059-3.244-6.616-3.244
			c-2.191,0-3.933,0.66-5.224,1.98c-1.293,1.32-1.938,3.118-1.938,5.393c0,2.22,0.638,4.003,1.918,5.352
			c1.277,1.348,2.984,2.022,5.119,2.022c1.265,0,2.472-0.239,3.624-0.717V397.9z"/>
		<path fill="#FFFFFF" d="M130.363,412.143c-2.527-1.32-4.508-3.153-5.941-5.499c-1.432-2.346-2.149-4.993-2.149-7.943
			s0.717-5.596,2.149-7.942c1.433-2.346,3.414-4.178,5.941-5.499c2.529-1.32,5.379-1.98,8.554-1.98s6.025,0.66,8.553,1.98
			c2.529,1.32,4.509,3.153,5.941,5.499c1.433,2.346,2.15,4.992,2.15,7.942s-0.717,5.597-2.15,7.943
			c-1.432,2.346-3.412,4.178-5.941,5.499c-2.527,1.319-5.378,1.98-8.553,1.98S132.891,413.462,130.363,412.143z M142.266,405.169
			c0.997-0.604,1.79-1.46,2.381-2.569c0.589-1.11,0.885-2.408,0.885-3.898c0-1.489-0.296-2.787-0.885-3.897
			c-0.59-1.11-1.384-1.966-2.381-2.571c-0.998-0.604-2.114-0.905-3.35-0.905s-2.353,0.302-3.35,0.905
			c-0.997,0.605-1.79,1.461-2.381,2.571c-0.589,1.11-0.885,2.408-0.885,3.897c0,1.49,0.296,2.788,0.885,3.898
			c0.59,1.11,1.384,1.966,2.381,2.569c0.997,0.605,2.114,0.907,3.35,0.907S141.268,405.774,142.266,405.169z"/>
		<path fill="#FFFFFF" d="M172.126,391.665h-8.638v-7.711h27.218v7.711h-8.637v21.784h-9.944V391.665z"/>
		<path fill="#FFFFFF" d="M218.238,408.308h-11.209l-1.98,5.14h-10.112l12.893-29.495h9.775l12.893,29.495h-10.28L218.238,408.308z
			 M215.499,401.146l-2.865-7.416l-2.865,7.416H215.499z"/>
	</g>
	<g>
		<polygon fill="#FFFFFF" points="115.017,239.314 26.009,181.031 115.111,311.795 115.111,311.795 115.111,311.795 
			204.817,181.031 		"/>
		<polygon fill="#FFFFFF" points="115.111,0 115.111,0 25.256,155.993 115.013,214.36 204.772,155.993 115.111,0 		"/>
	</g>
</g>
<g>
</g>
<g>
</g>
<g>
</g>
<g>
</g>
<g>
</g>
<g>
</g>
<g>
</g>
<g>
</g>
<g>
</g>
<g>
</g>
<g>
</g>
<g>
</g>
<g>
</g>
<g>
</g>
<g>
</g>
</svg>
