<?xml version="1.0" encoding="iso-8859-1"?>
<!-- Generator: Adobe Illustrator 25.2.1, SVG Export Plug-In . SVG Version: 6.00 Build 0)  -->
<svg version="1.1" id="Layer_1" xmlns="http://www.w3.org/2000/svg" xmlns:xlink="http://www.w3.org/1999/xlink" x="0px" y="0px"
	 width="669.592px" height="427.14px" viewBox="0 0 669.592 427.14" enable-background="new 0 0 669.592 427.14"
	 xml:space="preserve">
<g>
	<g>
		<g>
			<path fill="#2F354B" d="M260.182,419.591c0-4.365,3.332-7.549,7.823-7.549c2.277,0,4.26,0.78,5.609,2.299l-1.371,1.328
				c-1.139-1.202-2.53-1.75-4.154-1.75c-3.331,0-5.799,2.404-5.799,5.672s2.468,5.673,5.799,5.673c1.624,0,3.016-0.569,4.154-1.771
				l1.371,1.329c-1.35,1.518-3.332,2.319-5.631,2.319C263.514,427.14,260.182,423.956,260.182,419.591z"/>
			<path fill="#2F354B" d="M279.331,419.591c0-4.323,3.332-7.549,7.866-7.549c4.491,0,7.823,3.206,7.823,7.549
				c0,4.344-3.332,7.549-7.823,7.549C282.663,427.14,279.331,423.914,279.331,419.591z M292.912,419.591
				c0-3.269-2.446-5.672-5.715-5.672c-3.312,0-5.757,2.404-5.757,5.672s2.445,5.673,5.757,5.673
				C290.465,425.264,292.912,422.86,292.912,419.591z"/>
			<path fill="#2F354B" d="M302.466,412.211h2.108v12.927h7.992v1.834h-10.101V412.211z"/>
			<path fill="#2F354B" d="M317.735,419.591c0-4.323,3.332-7.549,7.866-7.549c4.491,0,7.823,3.206,7.823,7.549
				c0,4.344-3.332,7.549-7.823,7.549C321.067,427.14,317.735,423.914,317.735,419.591z M331.316,419.591
				c0-3.269-2.446-5.672-5.715-5.672c-3.312,0-5.757,2.404-5.757,5.672s2.445,5.673,5.757,5.673
				C328.87,425.264,331.316,422.86,331.316,419.591z"/>
			<path fill="#2F354B" d="M354.556,426.972l-0.021-10.755l-5.335,8.962h-0.97l-5.335-8.899v10.691h-2.024v-14.761h1.729
				l6.158,10.375l6.073-10.375h1.729l0.021,14.761H354.556z"/>
			<path fill="#2F354B" d="M377.923,422.987c0,2.53-1.919,3.985-5.651,3.985h-7.043v-14.761h6.621c3.396,0,5.293,1.434,5.293,3.817
				c0,1.603-0.822,2.72-1.982,3.29C376.827,419.781,377.923,421.025,377.923,422.987z M367.338,413.919v4.724h4.323
				c2.15,0,3.374-0.801,3.374-2.362s-1.224-2.362-3.374-2.362H367.338z M375.794,422.818c0-1.708-1.266-2.467-3.605-2.467h-4.851
				v4.914h4.851C374.528,425.264,375.794,424.526,375.794,422.818z"/>
			<path fill="#2F354B" d="M385.411,412.211h2.108v14.761h-2.108V412.211z"/>
			<path fill="#2F354B" d="M405.572,423.281h-7.845l-1.624,3.69h-2.172l6.685-14.761h2.088l6.706,14.761h-2.214L405.572,423.281z
				 M404.834,421.594l-3.185-7.233l-3.184,7.233H404.834z"/>
		</g>
	</g>
	<g>
		<g>
			<g>
				<path fill="#2F354B" d="M139.868,354.902h10.092c7.698,0,12.932,4.858,12.932,11.974c0,7.116-5.233,11.974-12.932,11.974
					h-10.092V354.902z M149.755,375.872c5.919,0,9.716-3.626,9.716-8.997s-3.797-8.997-9.716-8.997h-6.466v17.994H149.755z"/>
				<path fill="#2F354B" d="M192.35,375.872v2.977h-17.379v-23.947h16.9v2.977h-13.479v7.355H190.4v2.907h-12.008v7.731H192.35z"/>
				<path fill="#2F354B" d="M225.195,354.902l-10.502,23.947h-3.387l-10.537-23.947h3.694l8.621,19.671l8.689-19.671H225.195z"/>
				<path fill="#2F354B" d="M232.895,366.875c0-7.081,5.405-12.247,12.692-12.247c3.694,0,6.91,1.266,9.1,3.729l-2.224,2.155
					c-1.847-1.95-4.104-2.839-6.739-2.839c-5.405,0-9.407,3.899-9.407,9.202s4.002,9.202,9.407,9.202
					c2.635,0,4.893-0.923,6.739-2.873l2.224,2.155c-2.189,2.463-5.405,3.763-9.134,3.763
					C238.3,379.122,232.895,373.957,232.895,366.875z"/>
				<path fill="#2F354B" d="M263.962,366.875c0-7.013,5.405-12.247,12.761-12.247c7.287,0,12.692,5.2,12.692,12.247
					s-5.405,12.247-12.692,12.247C269.367,379.122,263.962,373.888,263.962,366.875z M285.994,366.875
					c0-5.303-3.969-9.202-9.271-9.202c-5.371,0-9.339,3.899-9.339,9.202s3.968,9.202,9.339,9.202
					C282.025,376.077,285.994,372.178,285.994,366.875z"/>
				<path fill="#2F354B" d="M322.089,354.902v23.947h-2.805l-14.369-17.857v17.857h-3.421v-23.947h2.806l14.368,17.857v-17.857
					H322.089z"/>
			</g>
		</g>
		<g>
			<path fill="#2F354B" d="M363.445,368.616c0.775,1.005,1.164,2.214,1.164,3.628c0,2.099-0.868,3.725-2.602,4.876
				c-1.733,1.152-4.243,1.729-7.528,1.729h-13.483v-23.955h12.799c3.194,0,5.606,0.571,7.238,1.712
				c1.631,1.141,2.446,2.657,2.446,4.551c0,1.118-0.279,2.122-0.838,3.012c-0.56,0.89-1.387,1.608-2.481,2.156
				C361.574,366.849,362.67,367.613,363.445,368.616z M348.935,360.54v3.56h3.765c1.756,0,2.635-0.593,2.635-1.779
				s-0.879-1.78-2.635-1.78H348.935z M356.464,371.321c0-1.255-0.89-1.883-2.669-1.883h-4.859v3.765h4.859
				C355.574,373.202,356.464,372.575,356.464,371.321z"/>
			<path fill="#2F354B" d="M379.22,377.788c-2.053-1.072-3.661-2.561-4.825-4.466c-1.163-1.905-1.745-4.056-1.745-6.451
				s0.582-4.545,1.745-6.45c1.164-1.905,2.772-3.394,4.825-4.466c2.054-1.072,4.369-1.608,6.947-1.608s4.894,0.536,6.946,1.608
				c2.054,1.072,3.662,2.561,4.825,4.466c1.164,1.905,1.746,4.055,1.746,6.45s-0.582,4.546-1.746,6.451
				c-1.163,1.905-2.771,3.394-4.825,4.466c-2.053,1.071-4.368,1.608-6.946,1.608S381.274,378.86,379.22,377.788z M388.888,372.124
				c0.81-0.49,1.454-1.186,1.934-2.087c0.479-0.901,0.719-1.956,0.719-3.166c0-1.209-0.24-2.264-0.719-3.165
				c-0.479-0.901-1.124-1.597-1.934-2.088c-0.811-0.49-1.717-0.735-2.721-0.735s-1.911,0.245-2.721,0.735
				c-0.81,0.491-1.454,1.187-1.934,2.088c-0.479,0.901-0.719,1.956-0.719,3.165c0,1.21,0.24,2.265,0.719,3.166
				c0.479,0.901,1.124,1.597,1.934,2.087c0.81,0.491,1.717,0.736,2.721,0.736S388.078,372.615,388.888,372.124z"/>
			<path fill="#2F354B" d="M424.631,366.221h7.016v10.13c-1.415,0.981-3.058,1.734-4.928,2.259c-1.871,0.524-3.708,0.787-5.51,0.787
				c-2.556,0-4.849-0.53-6.879-1.592c-2.03-1.061-3.622-2.543-4.773-4.448c-1.152-1.905-1.729-4.066-1.729-6.485
				c0-2.418,0.576-4.579,1.729-6.484c1.151-1.905,2.76-3.388,4.825-4.449c2.064-1.061,4.397-1.591,6.998-1.591
				c2.35,0,4.454,0.394,6.313,1.181s3.405,1.934,4.637,3.438l-5.167,4.552c-1.506-1.757-3.297-2.635-5.373-2.635
				c-1.779,0-3.194,0.536-4.243,1.608c-1.05,1.072-1.574,2.532-1.574,4.38c0,1.803,0.519,3.251,1.558,4.347
				c1.037,1.095,2.424,1.643,4.157,1.643c1.027,0,2.008-0.194,2.943-0.582V366.221z"/>
			<path fill="#2F354B" d="M446.875,377.788c-2.053-1.072-3.661-2.561-4.825-4.466c-1.163-1.905-1.745-4.056-1.745-6.451
				s0.582-4.545,1.745-6.45c1.164-1.905,2.772-3.394,4.825-4.466c2.054-1.072,4.369-1.608,6.947-1.608s4.894,0.536,6.946,1.608
				c2.054,1.072,3.662,2.561,4.825,4.466c1.164,1.905,1.746,4.055,1.746,6.45s-0.582,4.546-1.746,6.451
				c-1.163,1.905-2.771,3.394-4.825,4.466c-2.053,1.071-4.368,1.608-6.946,1.608S448.928,378.86,446.875,377.788z M456.543,372.124
				c0.81-0.49,1.454-1.186,1.934-2.087c0.479-0.901,0.719-1.956,0.719-3.166c0-1.209-0.24-2.264-0.719-3.165
				c-0.479-0.901-1.124-1.597-1.934-2.088c-0.811-0.49-1.717-0.735-2.721-0.735s-1.911,0.245-2.721,0.735
				c-0.81,0.491-1.454,1.187-1.934,2.088c-0.479,0.901-0.719,1.956-0.719,3.165c0,1.21,0.24,2.265,0.719,3.166
				c0.479,0.901,1.124,1.597,1.934,2.087c0.81,0.491,1.717,0.736,2.721,0.736S455.732,372.615,456.543,372.124z"/>
			<path fill="#2F354B" d="M481.301,361.156h-7.016v-6.263h22.106v6.263h-7.015v17.692h-8.076V361.156z"/>
			<path fill="#2F354B" d="M519.766,374.674h-9.104l-1.608,4.175h-8.213l10.472-23.955h7.939l10.472,23.955h-8.35L519.766,374.674z
				 M517.542,368.857l-2.327-6.023l-2.327,6.023H517.542z"/>
		</g>
	</g>
	<g>
		<polygon fill="#1C63AD" points="632.156,103.129 594.72,103.129 594.72,222.4 594.721,222.4 632.156,222.4 669.592,222.4 
			669.592,222.4 669.592,103.129 		"/>
		<polygon fill="#1C63AD" points="431.524,103.129 468.96,167.97 468.96,167.97 506.396,222.4 543.831,167.97 543.832,167.97 
			581.268,103.129 506.396,103.129 		"/>
		<polygon fill="#1C63AD" points="164.169,103.107 126.727,167.959 164.169,222.4 239.053,222.4 201.611,167.959 239.053,103.107 		
			"/>
		<polygon fill="#1C63AD" points="243.779,159.097 262.108,170.77 262.108,170.77 280.436,182.443 280.436,182.443 335.422,217.464 
			372.079,194.117 372.079,194.117 427.065,159.097 335.422,0 		"/>
		<polygon fill="#1C63AD" points="395.05,198.256 335.458,236.21 308.589,219.017 308.635,219.085 276.084,198.256 276.168,198.379 
			244.206,177.927 335.422,311.795 427.065,177.927 394.976,198.364 		"/>
		<polygon opacity="0.75" fill="#214290" points="582.31,241.519 582.31,240.59 581.774,241.519 		"/>
		<rect x="335.209" y="270.712" fill="none" width="0.001" height="0"/>
		<polygon fill="#07AED1" points="632.156,103.129 594.72,103.129 594.72,222.4 632.156,222.4 669.592,222.4 669.592,103.129 		"/>
		<polygon fill="#0075A2" points="581.774,241.519 582.31,241.519 582.31,240.59 		"/>
		<polygon fill="#07AED1" points="468.96,167.97 506.396,103.129 431.524,103.129 		"/>
		<polygon fill="#214290" points="543.832,167.97 581.267,103.129 506.396,103.129 		"/>
		<polygon fill="#1D6EAD" points="506.396,103.129 468.96,167.97 543.832,167.97 		"/>
		<polygon fill="#214290" points="506.396,222.4 543.832,167.97 468.96,167.97 		"/>
		<polygon fill="#1D6EAD" points="201.611,167.959 239.053,103.107 164.169,103.107 		"/>
		<polygon fill="#07AED1" points="164.169,103.107 126.726,167.959 201.611,167.959 		"/>
		<polygon fill="#1D6EAD" points="164.169,222.4 201.611,167.959 126.726,167.959 		"/>
		<polygon fill="#214290" points="201.611,167.959 164.169,222.4 239.053,222.4 		"/>
		<polygon fill="#07AED1" points="243.779,159.097 335.422,217.464 335.422,0 		"/>
		<polygon fill="#214290" points="427.065,159.097 335.422,217.464 335.422,0 		"/>
		<polygon fill="#E32227" points="262.108,170.77 335.422,217.464 335.422,43.493 		"/>
		<polygon fill="#7F141C" points="408.736,170.77 335.422,217.464 335.422,43.493 		"/>
		<polygon fill="#FBCD0B" points="280.436,182.443 335.422,217.464 335.422,86.986 		"/>
		<polygon fill="#F68D1E" points="390.408,182.443 335.422,217.464 335.422,86.986 		"/>
		<polygon fill="#FBCD0B" points="298.765,194.117 335.422,217.464 335.422,130.478 		"/>
		<polygon fill="#F68D1E" points="372.079,194.117 335.422,217.464 335.422,130.478 		"/>
		<path fill="#F8EE5F" d="M335.422,217.464"/>
		<polygon fill="#214290" points="427.065,177.927 335.422,311.795 335.422,236.294 		"/>
		<polygon fill="#07AED1" points="244.205,177.927 335.422,311.795 335.422,236.294 		"/>
		<polygon fill="#7F141C" points="395.05,198.256 335.428,285.348 335.428,236.229 		"/>
		<polygon fill="#E32227" points="276.084,198.256 335.428,285.348 335.428,236.229 		"/>
		<polygon fill="#F68D1E" points="362.456,219.017 335.46,258.452 335.46,236.211 		"/>
		<polygon fill="#FBCD0B" points="308.589,219.017 335.46,258.452 335.46,236.211 		"/>
		<polygon opacity="0.75" fill="#FFFFFF" points="335.422,217.464 347.948,195.717 322.896,195.717 		"/>
		<polygon opacity="0.75" fill="#FFFFFF" points="335.422,130.478 347.948,108.732 322.896,108.732 		"/>
		<polygon opacity="0.75" fill="#FFFFFF" points="347.948,152.225 360.475,130.478 335.422,130.478 		"/>
		<polygon opacity="0.75" fill="#FFFFFF" points="373.001,152.225 385.527,130.478 360.475,130.478 		"/>
		<polygon opacity="0.75" fill="#FFFFFF" points="360.475,173.971 373.001,152.225 347.948,152.225 		"/>
		<polygon opacity="0.75" fill="#FFFFFF" points="347.948,195.717 360.475,173.971 335.422,173.971 		"/>
		<polygon opacity="0.75" fill="#FFFFFF" points="322.896,195.717 335.422,173.971 310.369,173.971 		"/>
		<polygon opacity="0.75" fill="#FFFFFF" points="297.843,152.225 285.317,130.478 310.369,130.478 		"/>
		<polygon opacity="0.75" fill="#FFFFFF" points="310.369,173.971 297.843,152.225 322.896,152.225 		"/>
		<polygon opacity="0.75" fill="#FFFFFF" points="322.896,152.225 310.369,130.478 335.422,130.478 		"/>
		<polygon opacity="0.75" fill="#FFFFFF" points="347.948,108.732 360.475,86.986 335.422,86.986 		"/>
		<polygon opacity="0.75" fill="#FFFFFF" points="322.896,108.732 310.369,86.986 335.422,86.986 		"/>
		<polygon fill="#07AED1" points="0,103.107 0,222.4 37.442,162.753 		"/>
		<polygon fill="#1C63AD" points="0,103.107 0,103.107 0,103.107 		"/>
		<polygon fill="#1D6EAD" points="37.442,103.107 0,103.107 0,103.107 37.442,162.753 37.442,162.753 74.884,103.107 		"/>
		<polygon fill="#1D6EAD" points="37.442,162.754 37.442,162.753 0,222.4 37.442,222.4 74.885,222.4 		"/>
		<polygon fill="#214290" points="74.884,103.107 37.442,162.753 37.442,162.754 74.885,222.4 112.326,167.958 		"/>
		<polygon fill="#1C63AD" points="37.442,162.754 37.442,162.753 37.442,162.753 		"/>
		<polygon fill="#1D6EAD" points="632.156,162.764 594.72,222.4 669.592,222.4 667.7,219.386 		"/>
		<polygon fill="#1D6EAD" points="669.592,103.129 594.72,103.129 632.156,162.764 667.7,106.143 		"/>
		<polygon fill="#214290" points="667.7,106.143 632.156,162.764 667.7,219.386 669.592,222.4 669.592,103.129 		"/>
	</g>
</g>
<g>
</g>
<g>
</g>
<g>
</g>
<g>
</g>
<g>
</g>
<g>
</g>
<g>
</g>
<g>
</g>
<g>
</g>
<g>
</g>
<g>
</g>
<g>
</g>
<g>
</g>
<g>
</g>
<g>
</g>
</svg>
