<?xml version="1.0" encoding="utf-8"?>
<!-- Generator: Adobe Illustrator 25.2.1, SVG Export Plug-In . SVG Version: 6.00 Build 0)  -->
<svg version="1.1" id="Layer_1" xmlns="http://www.w3.org/2000/svg" xmlns:xlink="http://www.w3.org/1999/xlink" x="0px" y="0px"
	 width="299.2px" height="92.9px" viewBox="0 0 299.2 92.9" style="enable-background:new 0 0 299.2 92.9;" xml:space="preserve">
<style type="text/css">
	.st0{fill:#2F354B;}
</style>
<g>
	<g>
		<g>
			<path class="st0" d="M78.6,33.3h12.2c9.3,0,15.7,5.9,15.7,14.5s-6.3,14.5-15.7,14.5H78.6V33.3z M90.5,58.7
				c7.2,0,11.8-4.4,11.8-10.9c0-6.5-4.6-10.9-11.8-10.9h-7.8v21.8L90.5,58.7L90.5,58.7z"/>
			<path class="st0" d="M142.1,58.7v3.6h-21v-29h20.5v3.6h-16.3v8.9h14.5v3.5h-14.5v9.4L142.1,58.7L142.1,58.7z"/>
			<path class="st0" d="M181.9,33.3l-12.7,29h-4.1l-12.8-29h4.5l10.4,23.8l10.5-23.8H181.9z"/>
			<path class="st0" d="M191.2,47.8c0-8.6,6.5-14.8,15.4-14.8c4.5,0,8.4,1.5,11,4.5l-2.7,2.6c-2.2-2.4-5-3.4-8.2-3.4
				c-6.5,0-11.4,4.7-11.4,11.1c0,6.4,4.8,11.1,11.4,11.1c3.2,0,5.9-1.1,8.2-3.5l2.7,2.6c-2.7,3-6.5,4.6-11.1,4.6
				C197.8,62.6,191.2,56.4,191.2,47.8z"/>
			<path class="st0" d="M228.8,47.8c0-8.5,6.5-14.8,15.5-14.8c8.8,0,15.4,6.3,15.4,14.8s-6.5,14.8-15.4,14.8
				C235.4,62.6,228.8,56.3,228.8,47.8z M255.5,47.8c0-6.4-4.8-11.1-11.2-11.1c-6.5,0-11.3,4.7-11.3,11.1c0,6.4,4.8,11.1,11.3,11.1
				C250.7,59,255.5,54.2,255.5,47.8z"/>
			<path class="st0" d="M299.2,33.3v29h-3.4l-17.4-21.6v21.6h-4.1v-29h3.4l17.4,21.6V33.3H299.2z"/>
		</g>
	</g>
	<g>
		<path class="st0" d="M54.6,47.4L27.3,0L0,47.4l27.3,17.4L54.6,47.4z M29.3,31.5V11.4l17.3,30L29.3,31.5z M48.2,46.8l-18.9,12V36.1
			L48.2,46.8z M25.3,31.5L8.1,41.3l17.2-29.9C25.3,11.4,25.3,31.5,25.3,31.5z M25.3,36.1v22.7l-18.9-12L25.3,36.1z"/>
		<path class="st0" d="M27.3,70.4L0,53l27.3,39.9L54.6,53L27.3,70.4L27.3,70.4z M25.2,73.8l0.1,0.1V83L14.3,66.8L25.2,73.8z
			 M40.4,66.8L29.3,83v-9.1l0.1-0.1L40.4,66.8z"/>
	</g>
</g>
</svg>
